<svg width="221" height="32" viewBox="0 0 221 32" fill="none" xmlns="http://www.w3.org/2000/svg">
<path id="Vector 5" d="M212.979 21.1919H200.504V22.9932H204.068V25.6953H207.633L213.87 24.7946L214.762 25.6953L218.326 27.4966H221V29.298H219.217V32C139.308 29.6229 96.2414 29.298 28.5156 31.0993L8.9108 32V29.298H11.5842V27.4966H8.9108V25.6953H1.78177V22.9932L-0.000488281 18.4898V15.7878H8.9108L8.01967 13.9864H16.931L19.6044 13.0858H27.6245V11.2844H23.1689L20.4955 10.3837L19.6044 9.48306L17.8221 8.58238L19.6044 6.78102H23.1689L25.8423 4.97967H29.4068H37.4269V2.27763C100.852 -1.36931 137.694 -0.0675508 202.601 2.2258L204.068 2.27763V4.97967L205.85 6.78102L207.633 4.97967H212.979V8.58238H216.544V11.2844H214.762V16.6885H212.979V21.1919Z" fill="#AE0F0F"/>
</svg>
