<svg width="33" height="29" viewBox="0 0 33 29" fill="none" xmlns="http://www.w3.org/2000/svg">
<g id="Group 2">
<rect id="Rectangle 4" x="-0.000488281" width="33" height="29" fill="#AE0F0F"/>
<g id="Group">
<path id="Vector" d="M12.3362 19.3113C13.0305 21.8083 14.9985 23.749 17.5051 24.4081C20.0118 25.0673 22.6799 24.3456 24.5126 22.513C26.3451 20.6803 27.0669 18.0122 26.4077 15.5055C25.7485 12.999 23.8079 11.031 21.3108 10.3366C20.6165 7.83958 18.6485 5.89895 16.1419 5.23979C13.6352 4.58063 10.9671 5.30235 9.13441 7.13487C7.30186 8.96765 6.58012 11.6357 7.23933 14.1424C7.89849 16.6489 9.83912 18.6169 12.3362 19.3113ZM21.5263 13.1351H21.5266C22.8821 13.8263 23.8248 15.1246 24.0625 16.6275C24.3001 18.1305 23.804 19.6564 22.7277 20.732C21.6514 21.8077 20.1253 22.3033 18.6225 22.0648C17.1196 21.8265 15.8218 20.883 15.1315 19.5271C16.7618 19.3367 18.2802 18.6019 19.4407 17.4412C20.6014 16.2807 21.3362 14.7623 21.5265 13.132L21.5263 13.1351ZM14.6212 17.0268C14.7024 15.8852 15.1925 14.8112 16.0018 14.0021C16.8108 13.1928 17.8849 12.7027 19.0264 12.6216C18.9453 13.7631 18.4552 14.8372 17.6459 15.6463C16.8368 16.4556 15.7628 16.9456 14.6212 17.0268ZM14.2886 7.53553C15.1628 7.53619 16.0201 7.7778 16.7659 8.23407C17.5117 8.69033 18.1174 9.34335 18.516 10.1215C16.8857 10.3118 15.3673 11.0466 14.2068 12.2073C13.046 13.3678 12.3113 14.8863 12.1209 16.5165C10.8481 15.862 9.93782 14.6687 9.64293 13.2679C9.34827 11.8673 9.70041 10.4084 10.6016 9.29621C11.5028 8.18405 12.8572 7.53728 14.2886 7.53553Z" fill="white"/>
</g>
</g>
</svg>
