<svg width="332" height="376" viewBox="0 0 332 376" fill="none" xmlns="http://www.w3.org/2000/svg">
<path d="M46.4902 36.8682C34.5867 32.6952 22.0234 30.7223 9.41571 31.0475L26.6051 78.5606L61.8628 91.5403C65.2757 92.7991 67.0905 96.5241 65.9758 99.9882C56.3395 130.009 56.9296 162.38 67.6551 192.027C78.3807 221.673 98.6395 246.93 125.253 263.835C128.326 265.784 129.314 269.808 127.497 272.959L108.705 305.493L125.894 353.006C135.792 345.189 144.184 335.632 150.662 324.809L167.895 295.932C158.49 293.844 149.297 290.894 140.433 287.117L145.76 274.635L145.763 274.634C178.932 288.795 216.24 289.837 250.147 277.554C268.013 271.171 284.409 261.254 298.354 248.389C312.301 235.528 323.511 219.984 331.314 202.692L263.46 15.1347C246.399 6.83832 227.838 2.06425 208.891 1.10344C189.943 0.139331 170.997 3.00882 153.182 9.53365C130.655 17.6804 110.546 31.3699 94.7033 49.3374C92.8759 51.4194 89.9674 52.1784 87.3537 51.2586L46.4902 36.8682ZM240.913 252.031L245.531 264.794C221.202 273.634 194.765 274.899 169.702 268.422L173.085 255.278L173.087 255.277C195.504 261.072 219.151 259.94 240.913 252.031ZM163.055 252.205L158.498 264.991C153.782 263.308 149.164 261.355 144.67 259.14L150.675 246.964C154.699 248.949 158.83 250.699 163.055 252.205ZM259.101 122.766C265.224 139.691 264.372 158.354 256.734 174.651C249.096 190.949 235.298 203.545 218.373 209.668C201.448 215.791 182.785 214.939 166.487 207.301C150.189 199.663 137.594 185.865 131.471 168.94C125.348 152.015 126.199 133.353 133.838 117.055C141.476 100.757 155.274 88.1616 172.199 82.0384C189.126 75.9372 207.779 76.7985 224.072 84.4319C240.363 92.0693 252.96 105.854 259.101 122.766ZM-4.53415 32.382L10.699 74.488C-8.69985 72.3306 -27.841 80.3445 -39.9148 95.6826C-51.9896 111.018 -55.2872 131.506 -48.635 149.857L5.26715 298.848C11.8964 317.207 27.5388 330.842 46.6304 334.902C65.7232 338.965 85.5609 332.877 99.0891 318.807L114.322 360.913C87.8696 376.482 55.8551 379.466 26.9791 369.052C-1.89744 358.641 -24.6374 335.914 -35.069 307.044L-84.8787 169.364C-95.3328 140.504 -92.3983 108.488 -76.8674 82.0099C-61.3389 55.5344 -34.829 37.3446 -4.53357 32.3836L-4.53415 32.382ZM176.816 94.8013C190.357 89.9027 205.288 90.5834 218.325 96.6955C231.363 102.804 241.439 113.843 246.338 127.383C251.237 140.924 250.556 155.855 244.444 168.891C238.336 181.93 227.296 192.006 213.756 196.905C200.215 201.803 185.284 201.123 172.247 195.011C159.209 188.903 149.133 177.863 144.234 164.323C139.351 150.782 140.041 135.858 146.151 122.825C152.257 109.791 163.286 99.712 176.816 94.8013Z" fill="#F4F4F4"/>
</svg>
