<svg width="15" height="15" viewBox="0 0 15 15" fill="none" xmlns="http://www.w3.org/2000/svg">
<path d="M14.9995 7.49983C14.9995 11.6422 11.6419 15 7.49934 15C3.35694 15 -0.000488281 11.6424 -0.000488281 7.49983C-0.000488281 3.35743 3.35694 0 7.49934 0C11.6417 0 14.9995 3.35743 14.9995 7.49983ZM14.2101 7.49983C14.2101 3.79322 11.2059 0.789367 7.49928 0.789367C3.79263 0.789367 0.788811 3.79339 0.788811 7.49983C0.788811 11.2063 3.79284 14.2106 7.49928 14.2106C11.2057 14.2106 14.2101 11.2065 14.2101 7.49983ZM7.89413 7.10518H10.6574C10.8753 7.10518 11.052 7.28189 11.052 7.49983C11.052 7.71791 10.8753 7.89462 10.6574 7.89462H7.49934C7.2814 7.89462 7.10469 7.71791 7.10469 7.49983V2.76295C7.10469 2.54501 7.2814 2.3683 7.49934 2.3683C7.71742 2.3683 7.89413 2.54501 7.89413 2.76295V7.10518Z" fill="#6C6C6C"/>
</svg>
