<svg width="19" height="18" viewBox="0 0 19 18" fill="none" xmlns="http://www.w3.org/2000/svg">
<g id="Group">
<path id="Vector" d="M15.2319 17.8243C15.312 17.8179 15.3852 17.7778 15.4334 17.7145C15.4814 17.6511 15.4999 17.5705 15.4838 17.4927L14.1981 11.3223L18.9078 7.07828H18.9076C18.9896 7.00521 19.0205 6.89132 18.9863 6.78753C18.9523 6.68375 18.8598 6.60932 18.7498 6.59746L12.4122 5.89449L9.78049 0.161893L9.78069 0.162087C9.73502 0.063356 9.63532 0 9.52551 0C9.4157 0 9.316 0.063356 9.27033 0.162087L6.63862 5.89469L0.301014 6.59765V6.59746C0.191208 6.60931 0.0986959 6.68375 0.0646844 6.78753C0.0306734 6.89131 0.0613805 7.00521 0.143395 7.07828L4.85306 11.3223L3.56743 17.4927H3.56724C3.5443 17.5994 3.58687 17.7096 3.67588 17.774C3.76509 17.8385 3.88422 17.8451 3.98023 17.7913L9.52576 14.6778L15.0713 17.7913C15.1205 17.8179 15.1766 17.8295 15.2324 17.8243H15.2319ZM14.809 17.0053L9.66299 14.1175C9.57767 14.0698 9.47311 14.0698 9.3878 14.1175L4.24179 17.0053L5.43354 11.2827H5.43334C5.45356 11.1863 5.42032 11.0866 5.34608 11.0209L0.975531 7.0785L6.85689 6.42862C6.95485 6.41851 7.04036 6.35807 7.08176 6.26944L9.5255 0.944326L11.9692 6.26944C12.0106 6.35807 12.0962 6.41832 12.1941 6.42862L18.0755 7.0785L13.7049 11.0209C13.6307 11.0866 13.5974 11.1863 13.6177 11.2827L14.8094 17.0053H14.809Z" fill="#FBA724"/>
</g>
</svg>
