<svg width="50" height="50" viewBox="0 0 50 50" fill="none" xmlns="http://www.w3.org/2000/svg">
<g id="Group 9">
<circle id="Ellipse 69" cx="24.9995" cy="25" r="25" fill="#FFD6CD"/>
<g id="Group">
<path id="Vector" d="M38.8306 17.8888H38.8284V17.147C38.8284 16.4116 38.2302 15.8134 37.4946 15.8134C37.268 15.8134 37.0577 15.8755 36.8708 15.9755C36.8314 15.2753 36.2545 14.7162 35.5445 14.7162C34.809 14.7162 34.2108 15.3144 34.2108 16.0499V17.8886L33.0121 17.8888V13.2456C33.0121 12.5588 32.4533 12 31.7665 12C31.0795 11.9998 30.5207 12.5586 30.5207 13.2456V15.9052C30.5156 15.9052 30.5108 15.9037 30.5057 15.9037H27.4238C27.1517 15.9037 26.8963 16.0094 26.7039 16.2011L25.2723 17.6292C25.215 17.6863 25.139 17.7175 25.0585 17.7175H24.2656C24.1852 17.7175 24.1095 17.6863 24.0529 17.6297L22.6209 16.2011C22.4284 16.0091 22.1728 15.9037 21.9009 15.9037H18.819C18.8139 15.9037 18.8088 15.9052 18.8038 15.9052L18.8044 13.2456C18.8044 12.5588 18.2456 12 17.5588 12C16.8719 11.9998 16.313 12.5586 16.313 13.2456V17.8888H15.1146V16.0501C15.1146 15.3146 14.5163 14.7164 13.7809 14.7164C13.0708 14.7164 12.494 15.2755 12.4546 15.9757C12.2674 15.8757 12.0573 15.8136 11.8308 15.8136C11.0954 15.8136 10.4972 16.4118 10.4972 17.1472V17.889L10.4945 17.8888C9.67016 17.8888 8.99951 18.5595 8.99951 19.3838C8.99951 20.2082 9.67016 20.8788 10.4945 20.8788H10.4972V21.6206C10.4972 22.3563 11.0954 22.9545 11.8308 22.9545C12.0574 22.9545 12.2676 22.8924 12.4546 22.7922C12.4942 23.4922 13.0709 24.0512 13.7809 24.0512C14.5163 24.0512 15.1146 23.453 15.1146 22.7176V20.8788H16.313V28.9539C15.8548 29.1085 15.501 29.5042 15.4334 29.9804L13.8008 37.05C13.7763 37.1565 13.8014 37.2686 13.8697 37.354C13.9377 37.4397 14.041 37.4894 14.1504 37.4894L20.9669 37.4892C21.0761 37.4892 21.1795 37.4395 21.2476 37.3538C21.3158 37.2684 21.3409 37.1565 21.3165 37.0497L19.6896 30.0101C19.6178 29.5107 19.2629 29.1097 18.8042 28.9543V26.9309H30.5206V28.9539C30.062 29.1085 29.7082 29.5042 29.641 29.9804L28.0081 37.05C27.9837 37.1565 28.0088 37.2686 28.0771 37.354C28.1451 37.4397 28.2484 37.4894 28.3578 37.4894L35.1742 37.4892C35.2834 37.4892 35.3869 37.4395 35.455 37.3538C35.5232 37.2684 35.5483 37.1563 35.5239 37.0497L33.8967 30.0101C33.8252 29.5105 33.4705 29.1095 33.0116 28.9541V20.8785H34.2103V22.7172C34.2103 23.4526 34.8085 24.0508 35.5439 24.0508C36.2541 24.0508 36.8307 23.4918 36.8703 22.7918C37.0575 22.8918 37.2675 22.9541 37.4941 22.9541C38.2297 22.9541 38.8279 22.3559 38.8279 21.6202L38.8281 20.8785H38.8303C39.6547 20.8785 40.3254 20.2078 40.3254 19.3834C40.3251 18.5591 39.6545 17.8884 38.8301 17.8884L38.8306 17.8888ZM10.4945 20.1615C10.0658 20.1615 9.71682 19.8125 9.71682 19.3838C9.71682 18.9551 10.0658 18.6061 10.4945 18.6061H10.4972V20.1615H10.4945ZM11.8308 22.2369C11.4911 22.2369 11.2145 21.9604 11.2145 21.6204V17.147C11.2145 16.8072 11.491 16.5307 11.8308 16.5307C12.1705 16.5307 12.4471 16.8072 12.4471 17.147V21.6204C12.4471 21.9604 12.1706 22.2369 11.8308 22.2369ZM14.3972 22.7176C14.3972 23.0573 14.1207 23.3339 13.7809 23.3339C13.441 23.3339 13.1644 23.0574 13.1644 22.7176V16.05C13.1644 15.7102 13.4409 15.4337 13.7809 15.4337C14.1207 15.4337 14.3972 15.7102 14.3972 16.05V22.7176ZM31.7666 12.7176C32.0579 12.7176 32.2949 12.9547 32.2949 13.2458V17.306L31.2384 16.2143L31.2382 13.2458C31.2382 12.9545 31.4754 12.7176 31.7667 12.7176H31.7666ZM17.5588 12.7176C17.8501 12.7176 18.0871 12.9547 18.0871 13.2458V16.2145L17.0306 17.3062V13.2458C17.0306 12.9545 17.2678 12.7176 17.5589 12.7176H17.5588ZM18.0873 28.8824H17.0309V20.866C17.2574 20.8358 17.4717 20.7343 17.6317 20.5687L18.0873 20.098V28.8827V28.8824ZM20.5163 36.7721H14.6018L16.1385 30.1129C16.1805 29.8203 16.435 29.5999 16.7305 29.5999H18.3883C18.6838 29.5999 18.9383 29.8203 18.9857 30.1426L20.5163 36.7721ZM30.5175 26.2135H18.8051V25.178H30.5181L30.5175 26.2135ZM18.8051 24.4606V19.3563L19.1642 18.9853C19.2203 18.9272 19.2991 18.8937 19.3804 18.8937H21.3557C21.4362 18.8937 21.512 18.925 21.5686 18.9815L23.0004 20.4099C23.1928 20.6019 23.4485 20.7076 23.7206 20.7076H25.6067C25.8786 20.7076 26.134 20.6021 26.3263 20.4103L27.7583 18.9818C27.8145 18.9256 27.8922 18.8937 27.9714 18.8937H29.946C30.0273 18.8937 30.1065 18.9274 30.1629 18.9855L30.5214 19.3558V24.4608L18.8051 24.4606ZM31.239 20.0972L31.6948 20.5682C31.8548 20.7336 32.0689 20.8351 32.2954 20.8652V28.8817H31.239L31.239 20.0972ZM34.7247 36.7716H28.8102L30.3468 30.1119C30.3889 29.8195 30.6432 29.5991 30.9387 29.5991H32.5966C32.8921 29.5991 33.1464 29.8195 33.1938 30.1418L34.7247 36.7716ZM32.4278 20.1615C32.3463 20.1615 32.267 20.1278 32.2107 20.0695L30.6786 18.4863C30.4875 18.2893 30.2206 18.1763 29.9463 18.1763L27.9717 18.1761C27.6998 18.1761 27.4442 18.2818 27.2517 18.4736L25.8197 19.9021C25.7629 19.9587 25.6874 19.99 25.607 19.99H23.7209C23.6401 19.99 23.5644 19.9587 23.5076 19.9019L22.0755 18.4733C21.8831 18.2816 21.6276 18.1761 21.3559 18.1761H19.3807C19.1059 18.1761 18.8388 18.2893 18.6486 18.4863L17.1165 20.0692C17.0599 20.1276 16.9809 20.1613 16.8996 20.1613H15.1155V18.6059H16.3398C16.6141 18.6059 16.881 18.4929 17.0718 18.2956L18.6041 16.7123C18.6605 16.6542 18.7393 16.6207 18.8206 16.6207H21.9025C21.983 16.6207 22.059 16.652 22.1158 16.7088L23.5479 18.1373C23.7403 18.3291 23.9957 18.4346 24.2672 18.4346H25.0601C25.332 18.4346 25.5876 18.3291 25.7803 18.1371L27.2121 16.7088C27.2683 16.6526 27.346 16.6207 27.4252 16.6207H30.5071C30.5884 16.6207 30.6674 16.6542 30.7236 16.7123L32.2559 18.2956C32.4465 18.4929 32.7136 18.6059 32.9879 18.6059H34.2122V20.1613L32.4278 20.1615ZM36.1618 22.7176C36.1618 23.0573 35.8853 23.3339 35.5453 23.3339C35.2056 23.3339 34.929 23.0574 34.929 22.7176V16.05C34.929 15.7102 35.2055 15.4337 35.5453 15.4337C35.8853 15.4337 36.1618 15.7102 36.1618 16.05V22.7176ZM38.112 21.6204C38.112 21.9604 37.8355 22.237 37.4955 22.237C37.1557 22.237 36.8792 21.9604 36.8792 21.6204V17.147C36.8792 16.8073 37.1557 16.5307 37.4955 16.5307C37.8354 16.5307 38.112 16.8072 38.112 17.147V21.6204ZM38.8316 20.1615H38.8294V18.6061H38.8316C39.2603 18.6061 39.6093 18.9551 39.6093 19.3838C39.6093 19.8125 39.2603 20.1615 38.8316 20.1615Z" fill="#AE0F0F"/>
</g>
</g>
</svg>
