<svg width="50" height="50" viewBox="0 0 50 50" fill="none" xmlns="http://www.w3.org/2000/svg">
<g id="Group 7">
<circle id="Ellipse 70" cx="24.9995" cy="25" r="25" fill="#FFD6CD"/>
<g id="Group">
<path id="Vector" d="M35.6975 13.5808C32.7436 10.6266 28.8159 9 24.6389 9C20.4619 9 16.5338 10.6266 13.5803 13.5808C10.6261 16.5346 8.99951 20.4624 8.99951 24.6394C8.99951 28.8164 10.6261 32.7445 13.5803 35.6979C16.5341 38.6522 20.4619 40.2788 24.6389 40.2788C28.8159 40.2788 32.744 38.6521 35.6975 35.6979C38.6517 32.7441 40.2783 28.8164 40.2783 24.6394C40.2783 20.4624 38.6517 16.5343 35.6975 13.5808ZM37.2209 26.7265C36.3088 29.1228 34.9196 31.2651 33.0915 33.0927C31.2631 34.921 29.1215 36.3102 26.7253 37.2221C24.4297 38.0954 22.0167 38.4899 19.5533 38.3949C17.9849 37.8159 16.5211 36.9671 15.2188 35.871C15.7419 35.914 16.2669 35.9354 16.7914 35.9354C18.7318 35.9354 20.6712 35.6441 22.5189 35.0669C25.4468 34.1531 28.1482 32.5162 30.3312 30.3334C32.5147 28.15 34.1516 25.449 35.0648 22.5211C35.7977 20.1734 36.0693 17.6771 35.8682 15.2201C36.9643 16.5221 37.8131 17.9862 38.392 19.5545C38.4886 22.0185 38.0948 24.4313 37.2208 26.7265L37.2209 26.7265ZM10.5505 20.57C12.7812 19.6119 14.7885 18.251 16.5197 16.5208C18.2505 14.7899 19.6108 12.7826 20.5694 10.5516C21.7537 10.2112 22.9871 10.0193 24.248 9.9867C23.5505 13.5157 21.8407 16.7185 19.2795 19.28C16.7182 21.8413 13.5155 23.5511 9.98615 24.2485C10.0184 22.9877 10.2102 21.7543 10.5506 20.5699L10.5505 20.57ZM9.99368 25.2466C13.7858 24.5351 17.229 22.7179 19.9728 19.9738C22.7168 17.2298 24.5342 13.787 25.2456 9.99466C26.1969 10.0332 27.1322 10.162 28.0417 10.3773C27.9203 15.0465 26.044 19.4217 22.732 22.7335C19.4201 26.0452 15.0453 27.9215 10.3759 28.0431C10.1606 27.1336 10.0311 26.199 9.99322 25.247L9.99368 25.2466ZM23.4259 23.4274C26.8598 19.9935 28.8292 15.4749 29.0139 10.6434C29.8449 10.9024 30.6497 11.2346 31.4205 11.6383C31.9313 17.0509 30.0314 22.3408 26.1852 26.187C22.7506 29.6216 18.1653 31.5045 13.3687 31.5045C12.7939 31.5045 12.215 31.4756 11.6354 31.421C11.2324 30.6507 10.9001 29.8461 10.6418 29.0161C15.4732 28.8304 19.9912 26.8616 23.4258 23.4275L23.4259 23.4274ZM13.37 32.4858C18.425 32.4858 23.2582 30.501 26.879 26.8814C30.7712 22.9892 32.7719 17.6957 32.4497 12.2307C33.2624 12.7445 34.0297 13.3421 34.7405 14.0192C35.1624 16.7563 34.9521 19.5918 34.1289 22.2297C33.2624 25.0067 31.7094 27.5693 29.6381 29.6405C27.5668 31.7118 25.0038 33.2646 22.2272 34.1314C19.59 34.9546 16.7546 35.1648 14.0167 34.7429C13.3397 34.0321 12.7423 33.2648 12.2282 32.4521C12.6098 32.4738 12.9907 32.4857 13.3698 32.4857L13.37 32.4858ZM14.2733 14.2749C15.7268 12.8213 17.4319 11.7112 19.2909 10.9838C18.4145 12.7733 17.2529 14.3993 15.8256 15.8266C14.3983 17.2539 12.773 18.4154 10.9828 19.2918C11.7096 17.4341 12.8197 15.7284 14.2733 14.2749ZM35.0036 35.0052C32.2352 37.7737 28.5539 39.2985 24.6387 39.2985C24.0714 39.2985 23.5089 39.2654 22.9539 39.2021C24.357 39.0034 25.7346 38.6494 27.0747 38.1393C29.6015 37.1777 31.8592 35.7129 33.7858 33.7865C35.7122 31.86 37.1768 29.6019 38.1386 27.0754C38.6483 25.7353 39.0027 24.3577 39.2009 22.9539C39.264 23.5096 39.2973 24.0719 39.2973 24.6398C39.2971 28.5554 37.7723 32.2369 35.0039 35.0053L35.0036 35.0052Z" fill="#AE0F0F"/>
</g>
</g>
</svg>
