<svg width="20" height="20" viewBox="0 0 20 20" fill="none" xmlns="http://www.w3.org/2000/svg">
<path d="M6.2721 0.739258C3.25444 0.739258 0.799072 3.19832 0.799072 6.21948V14.0465C0.799072 17.0673 3.25589 19.5252 6.2743 19.5252H14.0942C17.1122 19.5252 19.5679 17.0662 19.5679 14.045V6.21728C19.5679 3.19687 17.1111 0.739258 14.0927 0.739258H6.2721ZM15.8142 3.74502C16.2286 3.74502 16.5649 4.08166 16.5649 4.49645C16.5649 4.91125 16.2286 5.24789 15.8142 5.24789C15.3997 5.24789 15.0634 4.91125 15.0634 4.49645C15.0634 4.08166 15.3997 3.74502 15.8142 3.74502ZM10.1835 5.24789C12.875 5.24789 15.0634 7.43834 15.0634 10.1322C15.0634 12.8262 12.8746 15.0166 10.1835 15.0166C7.49205 15.0166 5.3036 12.8258 5.3036 10.1322C5.3036 7.43871 7.49205 5.24789 10.1835 5.24789ZM10.1835 6.75077C8.3175 6.75077 6.80511 8.26455 6.80511 10.1322C6.80511 12 8.3175 13.5137 10.1835 13.5137C12.0495 13.5137 13.5619 12 13.5619 10.1322C13.5619 8.26455 12.0495 6.75077 10.1835 6.75077Z" fill="#E12727"/>
</svg>
