<svg width="36" height="21" viewBox="0 0 36 21" fill="none" xmlns="http://www.w3.org/2000/svg">
<g id="Group">
<path id="Vector" d="M1.31807 0.000130657C0.970144 -0.00480236 0.634699 0.13013 0.386897 0.374463C0.139087 0.618797 -0.000488281 0.952207 -0.000488281 1.30014C-0.000488281 1.64807 0.139087 1.98148 0.386897 2.22581C0.634707 2.47015 0.970159 2.60508 1.31807 2.60015H33.8181C34.166 2.60508 34.5014 2.47015 34.7492 2.22581C34.9971 1.98148 35.1366 1.64807 35.1366 1.30014C35.1366 0.952207 34.9971 0.618797 34.7492 0.374463C34.5014 0.13013 34.166 -0.00480192 33.8181 0.000130657H1.31807Z" fill="white"/>
<path id="Vector_2" d="M1.31807 9.10023C0.970144 9.0953 0.634699 9.23023 0.386897 9.47456C0.139087 9.71889 -0.000488281 10.0523 -0.000488281 10.4002C-0.000488281 10.7482 0.139087 11.0816 0.386897 11.3259C0.634707 11.5702 0.970159 11.7052 1.31807 11.7002H33.8181C34.166 11.7052 34.5014 11.5702 34.7492 11.3259C34.9971 11.0816 35.1366 10.7482 35.1366 10.4002C35.1366 10.0523 34.9971 9.71889 34.7492 9.47456C34.5014 9.23023 34.166 9.0953 33.8181 9.10023H1.31807Z" fill="white"/>
<path id="Vector_3" d="M1.31807 18.2001C0.970144 18.1951 0.634699 18.3301 0.386897 18.5744C0.139087 18.8187 -0.000488281 19.1522 -0.000488281 19.5001C-0.000488281 19.848 0.139087 20.1814 0.386897 20.4258C0.634707 20.6701 0.970159 20.805 1.31807 20.8001H33.8181C34.166 20.805 34.5014 20.6701 34.7492 20.4258C34.9971 20.1814 35.1366 19.848 35.1366 19.5001C35.1366 19.1522 34.9971 18.8187 34.7492 18.5744C34.5014 18.3301 34.166 18.1951 33.8181 18.2001H1.31807Z" fill="white"/>
</g>
</svg>
