<svg width="67" height="43" viewBox="0 0 67 43" fill="none" xmlns="http://www.w3.org/2000/svg">
<g id="Group 95">
<path id="Vector" d="M4.2865 0.000644871C1.9195 0.00100471 0.000857452 1.92559 0.00049009 4.29993V23.6415C-0.00166238 26.0173 1.91766 27.9448 4.2865 27.9448H20.6268C20.48 28.2827 20.3143 28.6264 20.1076 28.9733C18.6171 31.4822 15.7025 34.4018 6.39219 34.4018C0.804618 34.5278 0.804618 42.8744 6.39219 43C17.774 43 24.4985 38.3837 27.4788 33.3693C29.8275 29.4162 30.0069 25.5117 29.9775 23.99C30.0162 17.4603 29.9943 10.8549 29.9943 4.29928C29.994 1.92495 28.0753 0.000368499 25.7083 0L4.2865 0.000644871ZM8.57683 8.59884H21.4216V19.3424H8.57683V8.59884Z" fill="#B4B4B4"/>
<path id="Vector_2" d="M41.2865 0.000644871C38.9195 0.00100471 37.0009 1.92559 37.0005 4.29993V23.6415C36.9983 26.0173 38.9177 27.9448 41.2865 27.9448H57.6268C57.48 28.2827 57.3143 28.6264 57.1076 28.9733C55.6171 31.4822 52.7025 34.4018 43.3922 34.4018C37.8046 34.5278 37.8046 42.8744 43.3922 43C54.774 43 61.4985 38.3837 64.4788 33.3693C66.8275 29.4162 67.0069 25.5117 66.9775 23.99C67.0162 17.4603 66.9943 10.8549 66.9943 4.29928C66.994 1.92495 65.0753 0.000368499 62.7083 0L41.2865 0.000644871ZM45.5768 8.59884H58.4216V19.3424H45.5768V8.59884Z" fill="#B4B4B4"/>
</g>
</svg>
