<svg width="20" height="19" viewBox="0 0 20 19" fill="none" xmlns="http://www.w3.org/2000/svg">
<path d="M5.55087 7.40793C6.74331 10.4238 7.66731 11.7098 10.1707 13.8376L12.793 12.0618C13.884 12.5487 15.2556 13.1947 16.4129 13.396C16.799 13.4616 17.116 13.905 17.0626 14.265L16.4327 17.6517C16.3644 18.0265 15.9103 18.334 15.5133 18.287C5.87996 16.5884 1.27686 10.1821 2.63511 0.741482C2.66776 0.373175 3.12188 0.0655904 3.50769 0.132723L7.32688 0.812892C7.75131 0.872152 8.06882 1.31398 8.11968 1.55837C7.79544 2.81278 8.07364 4.46299 8.17294 5.63285L5.55087 7.40793Z" fill="#AE0F0F"/>
</svg>
