<svg width="25" height="22" viewBox="0 0 25 22" fill="none" xmlns="http://www.w3.org/2000/svg">
<path d="M24.346 3.29377C23.4657 3.70351 22.5191 3.97667 21.5205 4.10576C22.5359 3.47265 23.3168 2.46284 23.6834 1.26975C22.7334 1.85484 21.6811 2.28441 20.5613 2.51086C19.6671 1.51515 18.3916 0.897461 16.9786 0.897461C14.2642 0.897461 12.0643 3.18848 12.0643 6.01303C12.0643 6.41264 12.1088 6.80211 12.1927 7.18013C8.10925 6.96468 4.4876 4.92568 2.06464 1.83105C1.63893 2.58708 1.39945 3.47265 1.39945 4.40712C1.39945 6.1831 2.26512 7.74627 3.58502 8.66752C2.77932 8.64153 2.02102 8.40626 1.35709 8.02868C1.35709 8.04411 1.35709 8.06701 1.35709 8.0886C1.35709 10.5704 3.05152 12.6367 5.29749 13.1072C4.88688 13.2253 4.45321 13.291 4.00611 13.291C3.68861 13.291 3.37951 13.2531 3.08004 13.1967C3.70539 15.2247 5.51978 16.7072 7.66928 16.7508C5.98743 18.1206 3.86938 18.941 1.56596 18.941C1.16793 18.941 0.779135 18.9172 0.394531 18.8683C2.57004 20.3156 5.15405 21.1641 7.92764 21.1641C16.9656 21.1641 21.9097 13.3676 21.9097 6.60429C21.9097 6.38268 21.903 6.16195 21.8929 5.94386C22.858 5.22836 23.6892 4.32517 24.346 3.29377Z" fill="#00B2FF"/>
</svg>
