<svg width="19" height="18" viewBox="0 0 19 18" fill="none" xmlns="http://www.w3.org/2000/svg">
<g id="Group">
<path id="Vector" fill-rule="evenodd" clip-rule="evenodd" d="M9.26623 0.000378112C9.08974 0.00788536 8.93665 0.124322 8.88232 0.292423L6.89453 6.45325L0.422815 6.44044C0.239698 6.44015 0.0771888 6.55806 0.0206603 6.7322C-0.0358645 6.90633 0.026254 7.09711 0.174483 7.20456L5.41848 10.9993L3.40491 17.1537L3.40506 17.1535C3.34809 17.3277 3.40992 17.5184 3.55815 17.6262C3.70623 17.7338 3.90687 17.7336 4.05481 17.6257L9.28411 13.8096L14.5153 17.6257V17.6256C14.6632 17.7335 14.8639 17.7336 15.0121 17.626C15.1602 17.5183 15.222 17.3274 15.1651 17.1534L13.1515 10.999L18.3955 7.20426L18.3956 7.20441C18.544 7.09695 18.6061 6.90618 18.5496 6.7319C18.4929 6.55776 18.3306 6.43985 18.1473 6.44029L11.6756 6.4531L9.68557 0.292272C9.62727 0.111803 9.45578 -0.0075733 9.26634 0.000374087L9.26623 0.000378112Z" fill="#FBA724"/>
</g>
</svg>
